<svg id="svg" version="1.1" xmlns="http://www.w3.org/2000/svg" style="display: block;" viewBox="0 0 504 302"><path d="M0 0 C166.32 0 332.64 0 504 0 C504 99.66 504 199.32 504 302 C337.68 302 171.36 302 0 302 C0 202.34 0 102.68 0 0 Z " transform="translate(0,0)" style="fill: #000000;"/><path d="M0 0 C11.29762571 5.64881285 22.09471332 12.8669736 27 25 C31.2877313 42.48777516 29.3316987 61.77025584 28.65661585 79.65708601 C28.39613308 86.68384246 28.27222933 93.71119404 28.15744293 100.74159992 C27.91898893 115.16601828 27.51623814 129.58287349 27 144 C27.61362963 143.97972055 28.22725925 143.95944111 28.85948372 143.93854713 C43.89575941 143.44946209 58.92954437 143.08713436 73.97175789 142.86013222 C81.24712449 142.74738547 88.51713816 142.59419206 95.7890625 142.34033203 C102.13908089 142.11876398 108.48522313 141.97861395 114.83899963 141.93005311 C118.19818724 141.9016924 121.53765545 141.82492281 124.89484024 141.67393875 C137.98773977 141.10921288 148.35214836 141.35333176 158.28714311 150.42729843 C163.25300969 155.22130762 168.02256381 160.3533745 172 166 C172 166.66 172 167.32 172 168 C115.24 168 58.48 168 0 168 C0 112.56 0 57.12 0 0 Z " transform="translate(0,134)" style="fill: #FD7E10;"/><path d="M0 0 C54.12 0 108.24 0 164 0 C164 37.29 164 74.58 164 113 C154.65595901 108.3279795 146.17830647 101.15213848 141 92 C138.19140649 81.81183926 139.09297002 71.00836 139.69537354 60.56384277 C139.89272019 56.77055007 139.97712287 52.97472121 140.07226562 49.17773438 C140.27373307 41.7784093 140.59611541 34.39134355 141 27 C140.10299897 27.01659227 140.10299897 27.01659227 139.1878767 27.03351974 C124.59717628 27.2992189 110.00661918 27.49743655 95.41406536 27.62174606 C88.3567809 27.68347059 81.30111684 27.76752049 74.24487305 27.90527344 C67.43013589 28.03824755 60.61707972 28.10748447 53.80112648 28.13852692 C51.20586525 28.16063677 48.61069222 28.2038157 46.01614952 28.26876068 C24.60375526 28.78324357 24.60375526 28.78324357 19.0296936 24.40026855 C16.1699742 21.59116161 14.09115952 18.4161729 12 15 C10.73963372 13.53497922 9.45482117 12.08977839 8.125 10.6875 C5.08657939 7.2752423 2.71210774 3.79695083 0 0 Z " transform="translate(340,0)" style="fill: #FD7E10;"/><path d="M0 0 C5.7617063 -0.04989487 11.52328342 -0.08595113 17.28515625 -0.10986328 C19.2402567 -0.11984485 21.19534252 -0.13343487 23.15039062 -0.15087891 C53.18240277 -0.41189333 53.18240277 -0.41189333 62 7 C67.42278354 12.85089803 68.87285566 18.15172646 69 26 C68.486017 32.93305963 65.90634094 38.09365906 61 43 C58.11296267 45.20884259 55.13414032 47.16130435 52 49 C64.47597452 73.14359334 64.47597452 73.14359334 85 90 C84.67 91.65 84.34 93.3 84 95 C75.35787943 95.31425893 67.90051166 94.66526405 61.01953125 88.9921875 C55.44807299 83.49616485 51.16082504 77.04973675 47.23046875 70.32421875 C46.75585205 69.51694336 46.28123535 68.70966797 45.79223633 67.87792969 C44.86518534 66.28158142 43.95657761 64.67434261 43.0690918 63.05566406 C40.12741072 57.95386783 37.88548992 55.6915996 32 54 C29.66960195 53.64672888 27.33647264 53.31056588 25 53 C25.09376808 57.05718477 25.19991272 61.11384059 25.31738281 65.17041016 C25.35559338 66.54955243 25.39046002 67.92879167 25.421875 69.30810547 C25.46769624 71.29416967 25.52666263 73.27991679 25.5859375 75.265625 C25.63306885 77.05661621 25.63306885 77.05661621 25.68115234 78.88378906 C25.98307362 81.83457249 26.34019466 83.56946765 28 86 C30.39459647 87.12891757 30.39459647 87.12891757 33.125 87.75 C34.49011719 88.11351562 34.49011719 88.11351562 35.8828125 88.484375 C36.58148438 88.65453125 37.28015625 88.8246875 38 89 C38 90.65 38 92.3 38 94 C25.13 94 12.26 94 -1 94 C-1 92.35 -1 90.7 -1 89 C-0.21753906 88.80664062 0.56492187 88.61328125 1.37109375 88.4140625 C2.38300781 88.15367187 3.39492187 87.89328125 4.4375 87.625 C5.44683594 87.36976563 6.45617187 87.11453125 7.49609375 86.8515625 C10.15570324 86.27426046 10.15570324 86.27426046 11 84 C11.10765052 81.67773586 11.14893307 79.3523138 11.16113281 77.02758789 C11.16609772 76.31035049 11.17106262 75.5931131 11.17617798 74.85414124 C11.19080604 72.47696989 11.19760211 70.09986524 11.203125 67.72265625 C11.20887527 66.07360329 11.21463301 64.42455035 11.22039795 62.77549744 C11.23090932 59.31623014 11.23675131 55.8569861 11.24023438 52.39770508 C11.24572397 47.96099446 11.26976115 43.52458999 11.29820633 39.0879755 C11.31681071 35.68138219 11.32203709 32.27486302 11.32357025 28.86822319 C11.32660155 27.23231772 11.33464612 25.59641369 11.34775543 23.96055794 C11.3647729 21.67406889 11.36294681 19.38833297 11.35644531 17.10180664 C11.36191376 15.14894493 11.36191376 15.14894493 11.36749268 13.15663147 C11.26820044 10.03690401 11.26820044 10.03690401 9.60540771 8.10179138 C7.69227343 6.78880724 6.07758923 6.29522393 3.8125 5.8125 C1.9253125 5.4103125 1.9253125 5.4103125 0 5 C0 3.35 0 1.7 0 0 Z " transform="translate(96,136)" style="fill: #FFFFFF;"/><path d="M0 0 C7.92 0 15.84 0 24 0 C29.33897931 10.46273318 34.22003888 21.05750731 38.9375 31.8125 C40.27729335 34.86185279 41.61976257 37.91000727 42.96484375 40.95703125 C43.2921347 41.69970245 43.61942566 42.44237366 43.95663452 43.20755005 C46.71255615 49.42777418 49.60132849 55.58147099 52.56565857 61.70503235 C55 66.78684722 55 66.78684722 55 69 C55.66 69 56.32 69 57 69 C57.38671875 67.741875 57.7734375 66.48375 58.171875 65.1875 C60.05641243 59.5470663 62.61774745 54.32313471 65.25 49 C72.07965547 34.99797079 78.5064819 20.82170438 84.90623474 6.61940002 C85.90864823 4.39690842 86.90952189 2.18095622 88 0 C96.25 0 104.5 0 113 0 C113 1.65 113 3.3 113 5 C112.30132812 5.15855469 111.60265625 5.31710938 110.8828125 5.48046875 C109.97273438 5.71378906 109.06265625 5.94710937 108.125 6.1875 C107.22007812 6.40792969 106.31515625 6.62835938 105.3828125 6.85546875 C102.88767635 7.78343108 102.88767635 7.78343108 101.85180664 9.9309082 C100.61141589 14.40008338 100.84844875 18.6388954 100.98828125 23.25 C101.02226265 24.76279541 101.02226265 24.76279541 101.05693054 26.30615234 C101.13228639 29.53775945 101.2224755 32.76877193 101.3125 36 C101.36223697 38.11195796 101.41107356 40.22393732 101.45898438 42.3359375 C101.60647094 48.55846023 101.79464814 54.77914157 102 61 C102.03204529 62.01626465 102.06409058 63.0325293 102.09710693 64.07958984 C102.19300992 66.99109402 102.3028684 69.9016983 102.41796875 72.8125 C102.44619217 73.68406738 102.47441559 74.55563477 102.50349426 75.45361328 C102.55626778 76.66186768 102.55626778 76.66186768 102.61010742 77.89453125 C102.63715256 78.59425049 102.66419769 79.29396973 102.69206238 80.01489258 C103.05561284 82.3585059 103.74946759 83.9885329 105 86 C107.39459647 87.12891757 107.39459647 87.12891757 110.125 87.75 C111.49011719 88.11351562 111.49011719 88.11351562 112.8828125 88.484375 C113.58148438 88.65453125 114.28015625 88.8246875 115 89 C115 90.65 115 92.3 115 94 C102.46 94 89.92 94 77 94 C77 92.35 77 90.7 77 89 C77.62648438 88.86464844 78.25296875 88.72929687 78.8984375 88.58984375 C80.12433594 88.26693359 80.12433594 88.26693359 81.375 87.9375 C82.18710937 87.74027344 82.99921875 87.54304688 83.8359375 87.33984375 C86.32454984 86.10863033 86.32454984 86.10863033 87.12548828 82.88867188 C88.0204518 78.90905745 88.21492216 75.5143162 88.15625 71.44140625 C88.14815308 70.71691788 88.14005615 69.9924295 88.13171387 69.24598694 C88.10031482 66.8302781 88.05162399 64.41535738 88 62 C87.98356445 61.13590515 87.96712891 60.2718103 87.95019531 59.38153076 C87.82568476 52.89949399 87.66628165 46.41857853 87.5 39.9375 C87.45163102 37.99154122 87.40345287 36.04557768 87.35546875 34.09960938 C87.23917072 29.39968209 87.12031964 24.69982598 87 20 C77.85958166 39.87526656 68.82162768 59.79158441 59.96679688 79.79589844 C59.64005478 80.53394211 59.31331268 81.27198578 58.97666931 82.03239441 C58.3652214 83.41422924 57.75431943 84.79630583 57.14405823 86.17866516 C55.10818542 90.78362915 55.10818542 90.78362915 54 93 C52.68 93 51.36 93 50 93 C42.49417791 76.19241566 35.3143992 59.27887682 28.33203125 42.24853516 C26.7849725 38.4755946 25.23126793 34.70542165 23.67675781 30.93554688 C22.449198 27.9578412 21.22437195 24.97901767 20 22 C18.73073686 25.80778941 18.65438713 29.50515325 18.46484375 33.48046875 C18.40037804 34.74894402 18.40037804 34.74894402 18.33460999 36.04304504 C18.24435194 37.84101223 18.15623025 39.63908773 18.07006836 41.43725586 C17.94015874 44.13234212 17.80168617 46.82688366 17.66210938 49.52148438 C15.64226049 67.55852813 15.64226049 67.55852813 18 85 C20.53672381 86.36394535 20.53672381 86.36394535 23.5625 87.25 C24.57441406 87.58515625 25.58632813 87.9203125 26.62890625 88.265625 C27.41136719 88.50796875 28.19382812 88.7503125 29 89 C29 90.65 29 92.3 29 94 C17.78 94 6.56 94 -5 94 C-5 92.35 -5 90.7 -5 89 C-4.38511719 88.85304688 -3.77023437 88.70609375 -3.13671875 88.5546875 C-2.32847656 88.33039063 -1.52023437 88.10609375 -0.6875 87.875 C0.51326172 87.56175781 0.51326172 87.56175781 1.73828125 87.2421875 C4.96514509 85.46992032 5.5683895 83.34808942 7 80 C7.63965814 77.01123703 7.63965814 77.01123703 7.87890625 73.86328125 C7.99468018 72.66243896 8.1104541 71.46159668 8.22973633 70.22436523 C8.33954834 68.93344971 8.44936035 67.64253418 8.5625 66.3125 C8.68427096 64.95579097 8.80626439 63.59910188 8.9284668 62.24243164 C9.80643377 52.25846323 10.53492676 42.26039481 11.16549683 32.25790405 C11.26296112 30.71945744 11.36377448 29.18121909 11.4680481 27.64321899 C11.61219832 25.48014109 11.74012348 23.31670635 11.86328125 21.15234375 C11.93844971 19.91476318 12.01361816 18.67718262 12.09106445 17.40209961 C11.9956076 13.83590311 11.43390597 11.25887721 10 8 C7.637659 6.64169459 7.637659 6.64169459 4.875 6.125 C3.96492188 5.90070313 3.05484375 5.67640625 2.1171875 5.4453125 C1.41851562 5.29835937 0.71984375 5.15140625 0 5 C0 3.35 0 1.7 0 0 Z " transform="translate(287,136)" style="fill: #FFFFFF;"/><path d="M0 0 C1.05947876 2.04003906 1.05947876 2.04003906 2.03369141 4.765625 C2.59040024 6.2961853 2.59040024 6.2961853 3.15835571 7.85766602 C3.55211395 8.97713623 3.94587219 10.09660645 4.3515625 11.25 C4.76989349 12.41007568 5.18822449 13.57015137 5.61923218 14.76538086 C6.73875419 17.876513 7.84807705 20.99091038 8.95263672 24.10736084 C10.04233259 27.17475183 11.14480857 30.23753571 12.24609375 33.30078125 C15.70349962 42.93072819 19.14127765 52.56748609 22.54980469 62.21484375 C23.35345132 64.47658535 24.15715947 66.73830509 24.9609375 69 C25.50701157 70.55763062 25.50701157 70.55763062 26.06411743 72.14672852 C26.57837784 73.5900354 26.57837784 73.5900354 27.10302734 75.0625 C27.39833344 75.89910156 27.69363953 76.73570312 27.99789429 77.59765625 C28.97702692 80.11056911 28.97702692 80.11056911 30.61856079 82.68359375 C32 85 32 85 32 87 C35.3 87.99 38.6 88.98 42 90 C42 91.65 42 93.3 42 95 C30.45 95 18.9 95 7 95 C7 93.35 7 91.7 7 90 C12.75 88 12.75 88 15 88 C13.35692446 78.96308451 10.12217721 70.61992403 7 62 C-2.57 62 -12.14 62 -22 62 C-23.155 65.361875 -24.31 68.72375 -25.5 72.1875 C-25.86544922 73.23832764 -26.23089844 74.28915527 -26.60742188 75.37182617 C-26.89166016 76.21205322 -27.17589844 77.05228027 -27.46875 77.91796875 C-27.76201172 78.77156982 -28.05527344 79.6251709 -28.35742188 80.50463867 C-29.02681173 83.10411957 -29.11719018 85.32764529 -29 88 C-24.545 88.99 -24.545 88.99 -20 90 C-20 91.65 -20 93.3 -20 95 C-30.23 95 -40.46 95 -51 95 C-51 93.35 -51 91.7 -51 90 C-50.11248047 89.70609375 -50.11248047 89.70609375 -49.20703125 89.40625 C-48.41683594 89.1071875 -47.62664062 88.808125 -46.8125 88.5 C-46.03519531 88.2215625 -45.25789062 87.943125 -44.45703125 87.65625 C-37.07068492 82.67721845 -34.56960326 72.29435154 -31.55184937 64.29144287 C-30.05199358 60.31523374 -28.52391125 56.34984979 -27 52.3828125 C-26.6810527 51.5503299 -26.36210541 50.71784729 -26.03349304 49.86013794 C-22.18176045 39.82653507 -18.18615757 29.85074028 -14.1875 19.875 C-13.48069573 18.10807978 -12.7739082 16.34115287 -12.06713867 14.57421875 C-11.41343237 12.94263473 -10.75955149 11.31112064 -10.10546875 9.6796875 C-9.65488098 8.55407913 -9.65488098 8.55407913 -9.19519043 7.4057312 C-7.11663527 2.23327055 -7.11663527 2.23327055 -6 0 C-3 -1 -3 -1 0 0 Z " transform="translate(234,135)" style="fill: #FFFFFF;"/><path d="M0 0 C141.24 0 282.48 0 428 0 C428 1.98 428 3.96 428 6 C286.76 6 145.52 6 0 6 C0 4.02 0 2.04 0 0 Z " transform="translate(24,110)" style="fill: #094683;"/><path d="M0 0 C6.9390517 1.84968413 10.42260384 4.85135035 14 11 C16.11459088 17.34377263 16.20363234 25.36151571 13.375 31.5 C10.30101598 36.57689346 6.54043623 39.83170061 0.75 41.3125 C-2.63512447 41.89644249 -5.86387024 42.07433341 -9.296875 42.04296875 C-10.18213867 42.03676514 -11.06740234 42.03056152 -11.97949219 42.02416992 C-12.64625977 42.01619385 -13.31302734 42.00821777 -14 42 C-14.09894543 36.66151328 -14.17150414 31.32356131 -14.21972656 25.984375 C-14.23983061 24.1685252 -14.26711835 22.35274005 -14.30175781 20.53710938 C-14.35033039 17.92561895 -14.37298027 15.31498502 -14.390625 12.703125 C-14.41127014 11.89256653 -14.43191528 11.08200806 -14.45318604 10.24688721 C-14.45464009 6.58684803 -14.34697599 4.46263465 -12.11694336 1.48925781 C-8.29148163 -1.20193312 -4.47812206 -0.63691765 0 0 Z " transform="translate(135,142)" style="fill: #000000;"/><path d="M0 0 C2.41696872 -0.05411124 4.83271787 -0.09372278 7.25 -0.125 C7.93191406 -0.14175781 8.61382812 -0.15851563 9.31640625 -0.17578125 C13.0315375 -0.21185049 15.90907884 -0.18812735 19 2 C20.40457737 4.80915474 20.24895157 6.88810534 20 10 C19.46375 10.680625 18.9275 11.36125 18.375 12.0625 C17.694375 13.0215625 17.694375 13.0215625 17 14 C17.9330957 18.04341468 20.13144412 21.04707483 23 24 C24.32 24 25.64 24 27 24 C27 17.07 27 10.14 27 3 C26.34 2.67 25.68 2.34 25 2 C25 1.34 25 0.68 25 0 C31.27 0 37.54 0 44 0 C44 2.31 44 4.62 44 7 C43.01 6.67 42.02 6.34 41 6 C41 5.01 41 4.02 41 3 C38.69 3 36.38 3 34 3 C33.67 5.97 33.34 8.94 33 12 C33.928125 11.690625 34.85625 11.38125 35.8125 11.0625 C37.875 10.375 39.9375 9.6875 42 9 C42 11.64 42 14.28 42 17 C39.03 16.01 36.06 15.02 33 14 C33 17.3 33 20.6 33 24 C35.97 24 38.94 24 42 24 C42.66 22.35 43.32 20.7 44 19 C44.66 19.33 45.32 19.66 46 20 C45.67 22.31 45.34 24.62 45 27 C40.77119589 27.14541967 36.54303587 27.23411527 32.3125 27.3125 C31.11431641 27.35439453 29.91613281 27.39628906 28.68164062 27.43945312 C19.77539242 27.56349558 19.77539242 27.56349558 15.76953125 24.65234375 C14.58921313 22.88316935 13.45694764 21.08098832 12.375 19.25 C11.14209872 16.68925665 11.14209872 16.68925665 8 16 C8.12375 17.299375 8.2475 18.59875 8.375 19.9375 C8.44460938 20.66839844 8.51421875 21.39929688 8.5859375 22.15234375 C8.72257812 22.76207031 8.85921875 23.37179688 9 24 C9.66 24.33 10.32 24.66 11 25 C11 25.66 11 26.32 11 27 C7.37 27 3.74 27 0 27 C0 26.34 0 25.68 0 25 C0.99 24.34 1.98 23.68 3 23 C3.46334052 21.00748426 3.46334052 21.00748426 3.3984375 18.71875 C3.40230469 17.87699219 3.40617187 17.03523438 3.41015625 16.16796875 C3.39855469 15.28753906 3.38695312 14.40710938 3.375 13.5 C3.38660156 12.61957031 3.39820313 11.73914063 3.41015625 10.83203125 C3.40628906 9.99027344 3.40242188 9.14851563 3.3984375 8.28125 C3.39505371 7.50845703 3.39166992 6.73566406 3.38818359 5.93945312 C3.15635135 3.59362018 3.15635135 3.59362018 0 2 C0 1.34 0 0.68 0 0 Z " transform="translate(341,77)" style="fill: #FFFFFF;"/><path d="M0 0 C0.66 0 1.32 0 2 0 C5.63 10.89 9.26 21.78 13 33 C5.08 33 -2.84 33 -11 33 C-8.75 22.875 -8.75 22.875 -6.8359375 17.87109375 C-6.43632812 16.81728516 -6.03671875 15.76347656 -5.625 14.67773438 C-5.2125 13.60845703 -4.8 12.53917969 -4.375 11.4375 C-3.95476562 10.33341797 -3.53453125 9.22933594 -3.1015625 8.09179688 C-2.07321024 5.39237219 -1.0392595 2.69523999 0 0 Z " transform="translate(226,156)" style="fill: #000000;"/><path d="M0 0 C2.41734542 -0.08117951 4.83194949 -0.14056926 7.25 -0.1875 C7.93191406 -0.21263672 8.61382812 -0.23777344 9.31640625 -0.26367188 C12.43107097 -0.30903107 14.66629688 -0.17189159 17.45703125 1.265625 C19.58187436 3.65405624 19.43957627 5.85991428 19.43359375 8.96484375 C18.88462069 11.54155514 17.68113777 13.00671463 16 15 C16.95262034 16.48285242 17.91228405 17.96118201 18.875 19.4375 C19.40867188 20.26121094 19.94234375 21.08492187 20.4921875 21.93359375 C21.83834306 24.11038871 21.83834306 24.11038871 24 25 C24 25.66 24 26.32 24 27 C21.375 27.4375 21.375 27.4375 18 27 C14.72478357 24.13995185 12.39828577 20.59742866 10 17 C9.01 16.67 8.02 16.34 7 16 C7.26393501 19.43230448 7.26393501 19.43230448 8 23 C8.99 23.66 9.98 24.32 11 25 C11 25.66 11 26.32 11 27 C7.04 27 3.08 27 -1 27 C-1 26.34 -1 25.68 -1 25 C0.32 24.67 1.64 24.34 3 24 C2.67 17.07 2.34 10.14 2 3 C1.34 2.67 0.68 2.34 0 2 C0 1.34 0 0.68 0 0 Z " transform="translate(110,77)" style="fill: #FFFFFF;"/><path d="M0 0 C2.39652528 -0.08139142 4.79025436 -0.14067009 7.1875 -0.1875 C7.86103516 -0.21263672 8.53457031 -0.23777344 9.22851562 -0.26367188 C13.68613689 -0.32890536 16.49769132 0.19023823 20 3 C21.36059659 6.82667792 21.18914391 8.52263679 19.6875 12.3125 C18 15 18 15 16 16 C13.3276379 16.13415472 10.67749512 16.04318541 8 16 C8 18.64 8 21.28 8 24 C9.32 24.33 10.64 24.66 12 25 C12 25.66 12 26.32 12 27 C8.04 27 4.08 27 0 27 C0 26.34 0 25.68 0 25 C0.99 24.34 1.98 23.68 3 23 C3.41527124 20.87305335 3.41527124 20.87305335 3.29296875 18.4296875 C3.28330078 17.53378906 3.27363281 16.63789062 3.26367188 15.71484375 C3.2259668 14.30912109 3.2259668 14.30912109 3.1875 12.875 C3.17396484 11.93011719 3.16042969 10.98523438 3.14648438 10.01171875 C3.11106306 7.67391221 3.06167271 5.33723763 3 3 C2.01 2.67 1.02 2.34 0 2 C0 1.34 0 0.68 0 0 Z " transform="translate(162,77)" style="fill: #FFFFFF;"/><path d="M0 0 C3.38119534 4.20087905 3.60802511 8.33537758 3.0625 13.5625 C1.3662142 18.2049664 -0.55734628 21.18991674 -4.9375 23.5625 C-10.32720238 24.36889822 -14.57932588 24.22967325 -19.5 21.8125 C-22.42527065 19.11225017 -23.73397209 17.16429111 -24.23828125 13.1953125 C-24.26289265 7.92847334 -24.08483398 4.01217907 -20.9375 -0.4375 C-14.078862 -5.67172374 -6.57615881 -5.45681263 0 0 Z M-17.98828125 2.6484375 C-19.7581842 6.21737761 -19.59402916 9.70182308 -18.9375 13.5625 C-17.3564061 17.19901598 -15.49767014 19.73155536 -11.9375 21.5625 C-8.87859858 21.80300807 -8.87859858 21.80300807 -5.9375 20.5625 C-3.06222254 17.38456175 -2.03231066 15.3209853 -1.5 11.0625 C-2.09246656 6.32276755 -3.4170924 3.0829076 -6.8125 -0.3125 C-11.7465881 -2.92466429 -14.62722396 -1.82590375 -17.98828125 2.6484375 Z " transform="translate(335.9375,80.4375)" style="fill: #FFFFFF;"/><path d="M0 0 C3.62040028 4.49807308 3.60091656 9.01191475 3.0625 14.5625 C1.31539859 18.70037177 -1.0212545 21.35961191 -4.9375 23.5625 C-9.8378352 24.22670206 -14.28775527 24.18115427 -18.9375 22.4375 C-22.76412722 18.85003698 -24.1145853 15.2187111 -24.375 10.0625 C-24.18330834 4.64036455 -21.91921954 1.41636667 -18 -2.25 C-11.73514638 -5.85703693 -5.3714237 -4.45713882 0 0 Z M-17.9375 2.5625 C-19.52049585 7.31148755 -19.48957896 11.12709472 -17.6875 15.8125 C-15.93535386 18.56587251 -14.80786848 20.04289316 -11.9375 21.5625 C-9.4375 22.14583333 -9.4375 22.14583333 -6.9375 21.5625 C-4.14714571 19.3147146 -3.07839995 17.98519984 -1.9375 14.5625 C-1.56821976 8.93097628 -1.79430176 5.45191949 -4.9375 0.5625 C-10.33935765 -3.03873844 -13.42007759 -1.82943845 -17.9375 2.5625 Z " transform="translate(208.9375,80.4375)" style="fill: #FFFFFF;"/><path d="M0 0 C6.27 0 12.54 0 19 0 C19 2.31 19 4.62 19 7 C16 6 16 6 15 4 C12.6859378 3.26924352 10.35171131 2.59861742 8 2 C8 5.3 8 8.6 8 12 C8.928125 11.690625 9.85625 11.38125 10.8125 11.0625 C12.875 10.375 14.9375 9.6875 17 9 C17 11.64 17 14.28 17 17 C14.03 16.01 11.06 15.02 8 14 C8 17.3 8 20.6 8 24 C10.97 24 13.94 24 17 24 C17.66 22.35 18.32 20.7 19 19 C19.66 19.33 20.32 19.66 21 20 C20.67 22.31 20.34 24.62 20 27 C13.07 27 6.14 27 -1 27 C-1 26.34 -1 25.68 -1 25 C-0.01 24.67 0.98 24.34 2 24 C2 17.07 2 10.14 2 3 C1.34 2.67 0.68 2.34 0 2 C0 1.34 0 0.68 0 0 Z " transform="translate(270,77)" style="fill: #FFFFFF;"/><path d="M0 0 C6.27 0 12.54 0 19 0 C19 2.31 19 4.62 19 7 C18.01 6.67 17.02 6.34 16 6 C16 5.01 16 4.02 16 3 C13.69 3 11.38 3 9 3 C8.67 5.97 8.34 8.94 8 12 C8.928125 11.690625 9.85625 11.38125 10.8125 11.0625 C12.875 10.375 14.9375 9.6875 17 9 C17 11.64 17 14.28 17 17 C14.03 16.01 11.06 15.02 8 14 C8 17.3 8 20.6 8 24 C10.97 24 13.94 24 17 24 C17.66 22.35 18.32 20.7 19 19 C19.66 19.33 20.32 19.66 21 20 C20.67 22.31 20.34 24.62 20 27 C13.4 27 6.8 27 0 27 C0 26.34 0 25.68 0 25 C0.66 24.67 1.32 24.34 2 24 C2 17.07 2 10.14 2 3 C1.34 2.67 0.68 2.34 0 2 C0 1.34 0 0.68 0 0 Z " transform="translate(366,77)" style="fill: #FFFFFF;"/><path d="M0 0 C1 1 1 1 1.0625 4.5625 C1.041875 5.696875 1.02125 6.83125 1 8 C0.34 8 -0.32 8 -1 8 C-1.28875 7.360625 -1.5775 6.72125 -1.875 6.0625 C-2.82823451 3.84793921 -2.82823451 3.84793921 -5 3 C-8.59704193 2.60032867 -10.56779887 2.7790972 -13.8125 4.4375 C-16.906959 8.06243768 -17.29295936 11.30451246 -17 16 C-15.50831386 20.10213689 -14.64397687 21.57068209 -11 24 C-8.94290404 24.24055468 -8.94290404 24.24055468 -6.8125 24.125 C-5.554375 24.08375 -4.29625 24.0425 -3 24 C-3.33 21.69 -3.66 19.38 -4 17 C-4.99 16.67 -5.98 16.34 -7 16 C-7 15.34 -7 14.68 -7 14 C-3.37 14 0.26 14 4 14 C4 14.66 4 15.32 4 16 C3.34 16.33 2.68 16.66 2 17 C2 19.97 2 22.94 2 26 C-1.30335066 27.10111689 -3.89832137 27.20226528 -7.375 27.25 C-8.49648437 27.27578125 -9.61796875 27.3015625 -10.7734375 27.328125 C-15.6852538 26.82861826 -18.13950551 25.00003414 -21.3125 21.3125 C-23.37423366 17.26539318 -23.72010999 14.44512337 -23 10 C-21.20742802 4.82145872 -18.81785997 2.55063175 -14 0 C-9.10957734 -1.38207597 -4.93623339 -0.83664973 0 0 Z " transform="translate(104,77)" style="fill: #FFFFFF;"/><path d="M0 0 C2.29085321 2.29085321 2.80311057 3.88934591 3.83984375 6.9375 C4.3512793 8.40316406 4.3512793 8.40316406 4.87304688 9.8984375 C5.58227169 11.96494943 6.28800692 14.03266231 6.99023438 16.1015625 C7.33248047 17.07867187 7.67472656 18.05578125 8.02734375 19.0625 C8.48741821 20.41021484 8.48741821 20.41021484 8.95678711 21.78515625 C9.91655145 24.3173012 9.91655145 24.3173012 13 26 C13 26.66 13 27.32 13 28 C9.37 28 5.74 28 2 28 C2 26 2 26 4 24 C3.34 22.35 2.68 20.7 2 19 C-0.31 18.67 -2.62 18.34 -5 18 C-5.33 20.31 -5.66 22.62 -6 25 C-5.34 25.33 -4.68 25.66 -4 26 C-4 26.66 -4 27.32 -4 28 C-7.3 28 -10.6 28 -14 28 C-14 27.34 -14 26.68 -14 26 C-13.3827002 25.40082764 -12.76540039 24.80165527 -12.12939453 24.18432617 C-9.83594682 21.83171477 -9.01598384 20.12242786 -7.9296875 17.05078125 C-7.59066406 16.12072266 -7.25164062 15.19066406 -6.90234375 14.23242188 C-6.56332031 13.26884766 -6.22429687 12.30527344 -5.875 11.3125 C-5.19126381 9.38965083 -4.50147192 7.46894067 -3.8046875 5.55078125 C-3.50546387 4.70169189 -3.20624023 3.85260254 -2.89794922 2.9777832 C-2 1 -2 1 0 0 Z " transform="translate(237,76)" style="fill: #FFFFFF;"/><path d="M0 0 C3.63 0 7.26 0 11 0 C11 0.66 11 1.32 11 2 C10.01 2.66 9.02 3.32 8 4 C6.93950088 10.85165607 7.69742574 16.94528052 11 23 C13.64 23 16.28 23 19 23 C20.10789535 18.94691667 20.33731267 14.92888626 20.5625 10.75 C20.60568359 10.00492188 20.64886719 9.25984375 20.69335938 8.4921875 C20.79896725 6.661651 20.89994201 4.83084824 21 3 C19.68 2.67 18.36 2.34 17 2 C17 1.34 17 0.68 17 0 C20.63 0 24.26 0 28 0 C28 0.66 28 1.32 28 2 C26.68 2.33 25.36 2.66 24 3 C24.05220703 4.75376953 24.05220703 4.75376953 24.10546875 6.54296875 C24.13361716 8.09113141 24.16091619 9.63930968 24.1875 11.1875 C24.21263672 11.95642578 24.23777344 12.72535156 24.26367188 13.51757812 C24.32380764 18.18812274 24.05424203 21.21957455 21 25 C16.77845244 27.81436504 12.96024032 27.68304949 8 27 C5.42362529 25.11484777 4.40332572 23.80665143 3 21 C2.84995027 19.6265365 2.75161994 18.2471474 2.68359375 16.8671875 C2.64169922 16.06152344 2.59980469 15.25585938 2.55664062 14.42578125 C2.51732422 13.58402344 2.47800781 12.74226563 2.4375 11.875 C2.39431641 11.02550781 2.35113281 10.17601563 2.30664062 9.30078125 C2.20045764 7.20071777 2.09971503 5.10038052 2 3 C1.34 2.67 0.68 2.34 0 2 C0 1.34 0 0.68 0 0 Z " transform="translate(133,77)" style="fill: #FFFFFF;"/><path d="M0 0 C0.33 2.31 0.66 4.62 1 7 C-2 6 -2 6 -4 3 C-5.32 3 -6.64 3 -8 3 C-8.33 4.98 -8.66 6.96 -9 9 C-8.29875 9.226875 -7.5975 9.45375 -6.875 9.6875 C-3.22852855 11.35219349 -0.77617912 13.09469627 2 16 C2.68900545 19.92733107 2.58573474 21.96165205 0.625 25.4375 C-3.39154176 27.82829866 -7.43173948 27.48547716 -12 27 C-12.66 26.67 -13.32 26.34 -14 26 C-14.40729228 23.67843403 -14.74438677 21.3431213 -15 19 C-14.01 19 -13.02 19 -12 19 C-11.79375 19.639375 -11.5875 20.27875 -11.375 20.9375 C-10.10461791 23.34925077 -10.10461791 23.34925077 -6.875 23.75 C-5.92625 23.8325 -4.9775 23.915 -4 24 C-3.67 22.35 -3.34 20.7 -3 19 C-3.71027344 18.51789063 -4.42054688 18.03578125 -5.15234375 17.5390625 C-6.07144531 16.90742187 -6.99054688 16.27578125 -7.9375 15.625 C-8.85402344 14.99851562 -9.77054687 14.37203125 -10.71484375 13.7265625 C-13 12 -13 12 -14 10 C-14.39556513 6.36080082 -14.49454972 4.65351213 -12.25 1.6875 C-7.98838419 -1.50871186 -5.13226015 -1.04978049 0 0 Z " transform="translate(266,77)" style="fill: #FFFFFF;"/><path d="M0 0 C0 2.31 0 4.62 0 7 C-0.66 7 -1.32 7 -2 7 C-2.33 5.68 -2.66 4.36 -3 3 C-4.98 3 -6.96 3 -9 3 C-9.37094436 5.36555264 -9.37094436 5.36555264 -9 8 C-7.08041644 9.83494604 -7.08041644 9.83494604 -4.5625 11.1875 C-0.0756396 13.8487208 -0.0756396 13.8487208 1 16 C1.46422487 21.84923339 1.46422487 21.84923339 1 24 C-1.13180436 26.17591066 -2.48488221 26.92538013 -5.5078125 27.36328125 C-6.80332031 27.33814453 -6.80332031 27.33814453 -8.125 27.3125 C-8.99382812 27.30863281 -9.86265625 27.30476563 -10.7578125 27.30078125 C-13 27 -13 27 -15 25 C-15.125 21.875 -15.125 21.875 -15 19 C-11.60085025 20.13304992 -10.94745549 21.12518475 -9 24 C-7.35 23.67 -5.7 23.34 -4 23 C-3.88364895 20.70218446 -3.88364895 20.70218446 -5 18 C-6.79892755 16.48280145 -6.79892755 16.48280145 -8.9375 15.0625 C-11.80617832 13.05029758 -12.95196951 12.08716645 -14.6875 8.9375 C-15 6 -15 6 -13.9375 3.25 C-9.76835956 -1.59158245 -5.9944747 -1.1753872 0 0 Z " transform="translate(404,77)" style="fill: #FFFFFF;"/><path d="M0 0 C0 2.31 0 4.62 0 7 C-0.66 7 -1.32 7 -2 7 C-2.680625 6.01 -2.680625 6.01 -3.375 5 C-3.91125 4.34 -4.4475 3.68 -5 3 C-6.32 3 -7.64 3 -9 3 C-9.37094436 5.36555264 -9.37094436 5.36555264 -9 8 C-7.08041644 9.83494604 -7.08041644 9.83494604 -4.5625 11.1875 C-0.0756396 13.8487208 -0.0756396 13.8487208 1 16 C1.34503098 19.72633459 1.48548923 22.13936 -0.375 25.4375 C-4.35200624 27.80476562 -8.47382528 27.67813768 -13 27 C-15 25 -15 25 -15.125 21.875 C-15.08375 20.92625 -15.0425 19.9775 -15 19 C-14.34 19 -13.68 19 -13 19 C-12.34 20.65 -11.68 22.3 -11 24 C-9.02 24 -7.04 24 -5 24 C-4.67 22.35 -4.34 20.7 -4 19 C-4.62648438 18.52949219 -5.25296875 18.05898437 -5.8984375 17.57421875 C-6.71570313 16.95160156 -7.53296875 16.32898438 -8.375 15.6875 C-9.18710937 15.07261719 -9.99921875 14.45773438 -10.8359375 13.82421875 C-13 12 -13 12 -15 9 C-14.80464992 5.8743988 -14.5412935 3.74750055 -12.6875 1.1875 C-8.51246389 -1.75048837 -4.87165706 -0.84317141 0 0 Z " transform="translate(308,77)" style="fill: #FFFFFF;"/><path d="M0 0 C1.98 0.66 3.96 1.32 6 2 C6.75 4.75 6.75 4.75 7 8 C5.3125 10.375 5.3125 10.375 3 12 C1.68 12 0.36 12 -1 12 C-1.02687279 10.18757948 -1.04633715 8.37504767 -1.0625 6.5625 C-1.07410156 5.55316406 -1.08570313 4.54382813 -1.09765625 3.50390625 C-1 1 -1 1 0 0 Z " transform="translate(171,79)" style="fill: #000000;"/><path d="M0 0 C2.4375 1.375 2.4375 1.375 3.4375 3.75 C3.4375 6.375 3.4375 6.375 2.3125 8.6875 C0.4375 10.375 0.4375 10.375 -4.5625 10.375 C-4.5625 7.075 -4.5625 3.775 -4.5625 0.375 C-2.5625 -0.625 -2.5625 -0.625 0 0 Z " transform="translate(121.5625,79.625)" style="fill: #000000;"/><path d="M0 0 C4.875 1.875 4.875 1.875 6 3 C6.1875 5.9375 6.1875 5.9375 6 9 C4 11 4 11 1.375 11.125 C0.59125 11.08375 -0.1925 11.0425 -1 11 C-1.02688151 9.35425434 -1.04634123 7.70838587 -1.0625 6.0625 C-1.07410156 5.14597656 -1.08570313 4.22945313 -1.09765625 3.28515625 C-1 1 -1 1 0 0 Z " transform="translate(350,79)" style="fill: #000000;"/><path d="M0 0 C0.66 0.33 1.32 0.66 2 1 C2.625 4.0625 2.625 4.0625 3 7 C1.35 7 -0.3 7 -2 7 C-1.34 4.69 -0.68 2.38 0 0 Z " transform="translate(235,85)" style="fill: #000000;"/></svg>